<mxfile host="65bd71144e">
    <diagram id="8KLUlm-gPllUSoMWgSKK" name="第 1 页">
        <mxGraphModel dx="1813" dy="1085" grid="1" gridSize="10" guides="1" tooltips="1" connect="1" arrows="1" fold="1" page="0" pageScale="1" pageWidth="827" pageHeight="1169" math="0" shadow="0">
            <root>
                <mxCell id="0"/>
                <mxCell id="1" parent="0"/>
                <mxCell id="11" style="edgeStyle=none;html=1;exitX=1;exitY=0.25;exitDx=0;exitDy=0;fontFamily=Times New Roman;fontSize=16;" parent="1" edge="1">
                    <mxGeometry relative="1" as="geometry">
                        <mxPoint x="460" y="-265" as="sourcePoint"/>
                        <mxPoint x="580" y="-265" as="targetPoint"/>
                    </mxGeometry>
                </mxCell>
                <mxCell id="12" style="edgeStyle=none;html=1;fontFamily=Times New Roman;fontSize=16;entryX=1;entryY=0.75;entryDx=0;entryDy=0;" parent="1" edge="1">
                    <mxGeometry relative="1" as="geometry">
                        <mxPoint x="460" y="-235" as="targetPoint"/>
                        <mxPoint x="580" y="-235" as="sourcePoint"/>
                    </mxGeometry>
                </mxCell>
                <mxCell id="6" value="client 0" style="rounded=1;whiteSpace=wrap;html=1;fontFamily=Times New Roman;fontSize=16;" parent="1" vertex="1">
                    <mxGeometry x="20" y="-280" width="120" height="60" as="geometry"/>
                </mxCell>
                <mxCell id="7" value="client 1" style="rounded=1;whiteSpace=wrap;html=1;fontFamily=Times New Roman;fontSize=16;" parent="1" vertex="1">
                    <mxGeometry x="580" y="-280" width="120" height="60" as="geometry"/>
                </mxCell>
                <mxCell id="9" value="Relay Sever" style="swimlane;whiteSpace=wrap;html=1;labelBorderColor=default;fontFamily=Times New Roman;fontSize=16;" parent="1" vertex="1">
                    <mxGeometry x="260" y="-310" width="200" height="200" as="geometry">
                        <mxRectangle x="290" y="110" width="120" height="30" as="alternateBounds"/>
                    </mxGeometry>
                </mxCell>
                <mxCell id="16" value="Map(clientId, Connection)" style="rounded=1;whiteSpace=wrap;html=1;labelBorderColor=default;fontFamily=Times New Roman;fontSize=16;" parent="9" vertex="1">
                    <mxGeometry x="40" y="40" width="120" height="60" as="geometry"/>
                </mxCell>
                <mxCell id="17" value="Map(connFd, Connection)" style="rounded=1;whiteSpace=wrap;html=1;labelBorderColor=default;fontFamily=Times New Roman;fontSize=16;" parent="9" vertex="1">
                    <mxGeometry x="40" y="120" width="120" height="60" as="geometry"/>
                </mxCell>
                <mxCell id="15" value="Message to 1" style="text;html=1;align=center;verticalAlign=middle;resizable=0;points=[];autosize=1;strokeColor=none;fillColor=none;fontSize=16;fontFamily=Times New Roman;" parent="1" vertex="1">
                    <mxGeometry x="460" y="-300" width="110" height="30" as="geometry"/>
                </mxCell>
                <mxCell id="18" value="Message to 0" style="text;html=1;align=center;verticalAlign=middle;resizable=0;points=[];autosize=1;strokeColor=none;fillColor=none;fontSize=16;fontFamily=Times New Roman;" parent="1" vertex="1">
                    <mxGeometry x="460" y="-225" width="110" height="30" as="geometry"/>
                </mxCell>
                <mxCell id="19" style="edgeStyle=none;html=1;exitX=1;exitY=0.25;exitDx=0;exitDy=0;fontFamily=Times New Roman;fontSize=16;" parent="1" edge="1">
                    <mxGeometry relative="1" as="geometry">
                        <mxPoint x="140" y="-265" as="sourcePoint"/>
                        <mxPoint x="260" y="-265" as="targetPoint"/>
                    </mxGeometry>
                </mxCell>
                <mxCell id="20" style="edgeStyle=none;html=1;fontFamily=Times New Roman;fontSize=16;entryX=1;entryY=0.75;entryDx=0;entryDy=0;" parent="1" edge="1">
                    <mxGeometry relative="1" as="geometry">
                        <mxPoint x="140" y="-235" as="targetPoint"/>
                        <mxPoint x="260" y="-235" as="sourcePoint"/>
                    </mxGeometry>
                </mxCell>
                <mxCell id="21" value="Message to 1" style="text;html=1;align=center;verticalAlign=middle;resizable=0;points=[];autosize=1;strokeColor=none;fillColor=none;fontSize=16;fontFamily=Times New Roman;" parent="1" vertex="1">
                    <mxGeometry x="140" y="-300" width="110" height="30" as="geometry"/>
                </mxCell>
                <mxCell id="22" value="Message to 0" style="text;html=1;align=center;verticalAlign=middle;resizable=0;points=[];autosize=1;strokeColor=none;fillColor=none;fontSize=16;fontFamily=Times New Roman;" parent="1" vertex="1">
                    <mxGeometry x="140" y="-220" width="110" height="30" as="geometry"/>
                </mxCell>
                <mxCell id="31" value="RelayServer" style="swimlane;fontStyle=1;align=center;verticalAlign=top;childLayout=stackLayout;horizontal=1;startSize=26;horizontalStack=0;resizeParent=1;resizeParentMax=0;resizeLast=0;collapsible=1;marginBottom=0;labelBorderColor=default;strokeColor=default;fontFamily=Times New Roman;fontSize=16;" parent="1" vertex="1">
                    <mxGeometry x="60" y="360" width="330" height="554" as="geometry"/>
                </mxCell>
                <mxCell id="32" value="- m_serv_addr_: NetAddress" style="text;strokeColor=none;fillColor=none;align=left;verticalAlign=top;spacingLeft=4;spacingRight=4;overflow=hidden;rotatable=0;points=[[0,0.5],[1,0.5]];portConstraint=eastwest;labelBorderColor=default;fontFamily=Times New Roman;fontSize=16;" parent="31" vertex="1">
                    <mxGeometry y="26" width="330" height="26" as="geometry"/>
                </mxCell>
                <mxCell id="36" value="- m_listener_: NSocket" style="text;strokeColor=none;fillColor=none;align=left;verticalAlign=top;spacingLeft=4;spacingRight=4;overflow=hidden;rotatable=0;points=[[0,0.5],[1,0.5]];portConstraint=eastwest;labelBorderColor=default;fontFamily=Times New Roman;fontSize=16;" parent="31" vertex="1">
                    <mxGeometry y="52" width="330" height="26" as="geometry"/>
                </mxCell>
                <mxCell id="37" value="- m_log_: Logger*" style="text;strokeColor=none;fillColor=none;align=left;verticalAlign=top;spacingLeft=4;spacingRight=4;overflow=hidden;rotatable=0;points=[[0,0.5],[1,0.5]];portConstraint=eastwest;labelBorderColor=default;fontFamily=Times New Roman;fontSize=16;" parent="31" vertex="1">
                    <mxGeometry y="78" width="330" height="26" as="geometry"/>
                </mxCell>
                <mxCell id="43" value="- m_epoll_fd_: int" style="text;strokeColor=none;fillColor=none;align=left;verticalAlign=top;spacingLeft=4;spacingRight=4;overflow=hidden;rotatable=0;points=[[0,0.5],[1,0.5]];portConstraint=eastwest;labelBorderColor=default;fontFamily=Times New Roman;fontSize=16;" parent="31" vertex="1">
                    <mxGeometry y="104" width="330" height="26" as="geometry"/>
                </mxCell>
                <mxCell id="216" value="- m_events: struct epoll_event[MAXEVENTS]" style="text;strokeColor=none;fillColor=none;align=left;verticalAlign=top;spacingLeft=4;spacingRight=4;overflow=hidden;rotatable=0;points=[[0,0.5],[1,0.5]];portConstraint=eastwest;labelBorderColor=default;fontFamily=Times New Roman;fontSize=16;" vertex="1" parent="31">
                    <mxGeometry y="130" width="330" height="26" as="geometry"/>
                </mxCell>
                <mxCell id="41" value="- m_exit_flag_: static int" style="text;strokeColor=none;fillColor=none;align=left;verticalAlign=top;spacingLeft=4;spacingRight=4;overflow=hidden;rotatable=0;points=[[0,0.5],[1,0.5]];portConstraint=eastwest;labelBorderColor=default;fontFamily=Times New Roman;fontSize=16;" parent="31" vertex="1">
                    <mxGeometry y="156" width="330" height="26" as="geometry"/>
                </mxCell>
                <mxCell id="40" value="- m_next_client_id_: size_t" style="text;strokeColor=none;fillColor=none;align=left;verticalAlign=top;spacingLeft=4;spacingRight=4;overflow=hidden;rotatable=0;points=[[0,0.5],[1,0.5]];portConstraint=eastwest;labelBorderColor=default;fontFamily=Times New Roman;fontSize=16;" parent="31" vertex="1">
                    <mxGeometry y="182" width="330" height="26" as="geometry"/>
                </mxCell>
                <mxCell id="39" value="- m_id_conn_: std::map&lt;int, Connection*&gt;" style="text;strokeColor=none;fillColor=none;align=left;verticalAlign=top;spacingLeft=4;spacingRight=4;overflow=hidden;rotatable=0;points=[[0,0.5],[1,0.5]];portConstraint=eastwest;labelBorderColor=default;fontFamily=Times New Roman;fontSize=16;" parent="31" vertex="1">
                    <mxGeometry y="208" width="330" height="26" as="geometry"/>
                </mxCell>
                <mxCell id="38" value="- m_fd_conn_: std::map&lt;int, Connection*&gt;" style="text;strokeColor=none;fillColor=none;align=left;verticalAlign=top;spacingLeft=4;spacingRight=4;overflow=hidden;rotatable=0;points=[[0,0.5],[1,0.5]];portConstraint=eastwest;labelBorderColor=default;fontFamily=Times New Roman;fontSize=16;" parent="31" vertex="1">
                    <mxGeometry y="234" width="330" height="26" as="geometry"/>
                </mxCell>
                <mxCell id="33" value="" style="line;strokeWidth=1;fillColor=none;align=left;verticalAlign=middle;spacingTop=-1;spacingLeft=3;spacingRight=3;rotatable=0;labelPosition=right;points=[];portConstraint=eastwest;strokeColor=inherit;labelBorderColor=default;fontFamily=Times New Roman;fontSize=16;" parent="31" vertex="1">
                    <mxGeometry y="260" width="330" height="8" as="geometry"/>
                </mxCell>
                <mxCell id="34" value="+ Start(): void" style="text;strokeColor=none;fillColor=none;align=left;verticalAlign=top;spacingLeft=4;spacingRight=4;overflow=hidden;rotatable=0;points=[[0,0.5],[1,0.5]];portConstraint=eastwest;labelBorderColor=default;fontFamily=Times New Roman;fontSize=16;" parent="31" vertex="1">
                    <mxGeometry y="268" width="330" height="26" as="geometry"/>
                </mxCell>
                <mxCell id="109" value="- SetEvent(int, int, int): void" style="text;strokeColor=none;fillColor=none;align=left;verticalAlign=top;spacingLeft=4;spacingRight=4;overflow=hidden;rotatable=0;points=[[0,0.5],[1,0.5]];portConstraint=eastwest;labelBorderColor=default;fontFamily=Times New Roman;fontSize=16;" parent="31" vertex="1">
                    <mxGeometry y="294" width="330" height="26" as="geometry"/>
                </mxCell>
                <mxCell id="111" value="- DelEvent(int): void" style="text;strokeColor=none;fillColor=none;align=left;verticalAlign=top;spacingLeft=4;spacingRight=4;overflow=hidden;rotatable=0;points=[[0,0.5],[1,0.5]];portConstraint=eastwest;labelBorderColor=default;fontFamily=Times New Roman;fontSize=16;" parent="31" vertex="1">
                    <mxGeometry y="320" width="330" height="26" as="geometry"/>
                </mxCell>
                <mxCell id="114" value="- EventLoop(): void" style="text;strokeColor=none;fillColor=none;align=left;verticalAlign=top;spacingLeft=4;spacingRight=4;overflow=hidden;rotatable=0;points=[[0,0.5],[1,0.5]];portConstraint=eastwest;labelBorderColor=default;fontFamily=Times New Roman;fontSize=16;" parent="31" vertex="1">
                    <mxGeometry y="346" width="330" height="26" as="geometry"/>
                </mxCell>
                <mxCell id="115" value="- UpdateCliId(): void" style="text;strokeColor=none;fillColor=none;align=left;verticalAlign=top;spacingLeft=4;spacingRight=4;overflow=hidden;rotatable=0;points=[[0,0.5],[1,0.5]];portConstraint=eastwest;labelBorderColor=default;fontFamily=Times New Roman;fontSize=16;" parent="31" vertex="1">
                    <mxGeometry y="372" width="330" height="26" as="geometry"/>
                </mxCell>
                <mxCell id="118" value="- AddNewConn(Connection*)" style="text;strokeColor=none;fillColor=none;align=left;verticalAlign=top;spacingLeft=4;spacingRight=4;overflow=hidden;rotatable=0;points=[[0,0.5],[1,0.5]];portConstraint=eastwest;labelBorderColor=default;fontFamily=Times New Roman;fontSize=16;" parent="31" vertex="1">
                    <mxGeometry y="398" width="330" height="26" as="geometry"/>
                </mxCell>
                <mxCell id="117" value="- RemoveConn(const int&amp;)" style="text;strokeColor=none;fillColor=none;align=left;verticalAlign=top;spacingLeft=4;spacingRight=4;overflow=hidden;rotatable=0;points=[[0,0.5],[1,0.5]];portConstraint=eastwest;labelBorderColor=default;fontFamily=Times New Roman;fontSize=16;" parent="31" vertex="1">
                    <mxGeometry y="424" width="330" height="26" as="geometry"/>
                </mxCell>
                <mxCell id="112" value="- OnRecv(Connection*): void" style="text;strokeColor=none;fillColor=none;align=left;verticalAlign=top;spacingLeft=4;spacingRight=4;overflow=hidden;rotatable=0;points=[[0,0.5],[1,0.5]];portConstraint=eastwest;labelBorderColor=default;fontFamily=Times New Roman;fontSize=16;" parent="31" vertex="1">
                    <mxGeometry y="450" width="330" height="26" as="geometry"/>
                </mxCell>
                <mxCell id="110" value="- OnSend(Connection*): void" style="text;strokeColor=none;fillColor=none;align=left;verticalAlign=top;spacingLeft=4;spacingRight=4;overflow=hidden;rotatable=0;points=[[0,0.5],[1,0.5]];portConstraint=eastwest;labelBorderColor=default;fontFamily=Times New Roman;fontSize=16;" parent="31" vertex="1">
                    <mxGeometry y="476" width="330" height="26" as="geometry"/>
                </mxCell>
                <mxCell id="116" value="- Signal(int, sigfunc*): sigfunc*" style="text;strokeColor=none;fillColor=none;align=left;verticalAlign=top;spacingLeft=4;spacingRight=4;overflow=hidden;rotatable=0;points=[[0,0.5],[1,0.5]];portConstraint=eastwest;labelBorderColor=default;fontFamily=Times New Roman;fontSize=16;" parent="31" vertex="1">
                    <mxGeometry y="502" width="330" height="26" as="geometry"/>
                </mxCell>
                <mxCell id="120" value="- SigIntHandler(int): static void" style="text;strokeColor=none;fillColor=none;align=left;verticalAlign=top;spacingLeft=4;spacingRight=4;overflow=hidden;rotatable=0;points=[[0,0.5],[1,0.5]];portConstraint=eastwest;labelBorderColor=default;fontFamily=Times New Roman;fontSize=16;" parent="31" vertex="1">
                    <mxGeometry y="528" width="330" height="26" as="geometry"/>
                </mxCell>
                <mxCell id="44" value="Logger" style="swimlane;fontStyle=1;align=center;verticalAlign=top;childLayout=stackLayout;horizontal=1;startSize=26;horizontalStack=0;resizeParent=1;resizeParentMax=0;resizeLast=0;collapsible=1;marginBottom=0;labelBorderColor=default;strokeColor=default;fontFamily=Times New Roman;fontSize=16;" parent="1" vertex="1">
                    <mxGeometry x="520" y="280" width="355" height="112" as="geometry"/>
                </mxCell>
                <mxCell id="45" value="- log_fp_: FILE*" style="text;strokeColor=none;fillColor=none;align=left;verticalAlign=top;spacingLeft=4;spacingRight=4;overflow=hidden;rotatable=0;points=[[0,0.5],[1,0.5]];portConstraint=eastwest;labelBorderColor=default;fontFamily=Times New Roman;fontSize=16;" parent="44" vertex="1">
                    <mxGeometry y="26" width="355" height="26" as="geometry"/>
                </mxCell>
                <mxCell id="46" value="" style="line;strokeWidth=1;fillColor=none;align=left;verticalAlign=middle;spacingTop=-1;spacingLeft=3;spacingRight=3;rotatable=0;labelPosition=right;points=[];portConstraint=eastwest;strokeColor=inherit;labelBorderColor=default;fontFamily=Times New Roman;fontSize=16;" parent="44" vertex="1">
                    <mxGeometry y="52" width="355" height="8" as="geometry"/>
                </mxCell>
                <mxCell id="47" value="+ Log(enum Logger::LogLevel, const char*, ...): void&#10;" style="text;strokeColor=none;fillColor=none;align=left;verticalAlign=top;spacingLeft=4;spacingRight=4;overflow=hidden;rotatable=0;points=[[0,0.5],[1,0.5]];portConstraint=eastwest;labelBorderColor=default;fontFamily=Times New Roman;fontSize=16;" parent="44" vertex="1">
                    <mxGeometry y="60" width="355" height="26" as="geometry"/>
                </mxCell>
                <mxCell id="48" value="+ GetTime(): std::string" style="text;strokeColor=none;fillColor=none;align=left;verticalAlign=top;spacingLeft=4;spacingRight=4;overflow=hidden;rotatable=0;points=[[0,0.5],[1,0.5]];portConstraint=eastwest;labelBorderColor=default;fontFamily=Times New Roman;fontSize=16;" parent="44" vertex="1">
                    <mxGeometry y="86" width="355" height="26" as="geometry"/>
                </mxCell>
                <mxCell id="49" value="1" style="endArrow=open;html=1;endSize=12;startArrow=diamondThin;startSize=14;startFill=0;edgeStyle=orthogonalEdgeStyle;align=left;verticalAlign=bottom;fontFamily=Times New Roman;fontSize=16;exitX=1;exitY=0.5;exitDx=0;exitDy=0;entryX=0.006;entryY=0.793;entryDx=0;entryDy=0;entryPerimeter=0;" parent="1" edge="1" target="45" source="37">
                    <mxGeometry x="-1" y="3" relative="1" as="geometry">
                        <mxPoint x="440" y="520" as="sourcePoint"/>
                        <mxPoint x="560" y="520" as="targetPoint"/>
                    </mxGeometry>
                </mxCell>
                <mxCell id="75" value="Client 0" style="shape=umlActor;verticalLabelPosition=bottom;verticalAlign=top;html=1;labelBorderColor=default;strokeColor=default;fontFamily=Times New Roman;fontSize=16;" parent="1" vertex="1">
                    <mxGeometry x="110" y="2676" width="20" height="50" as="geometry"/>
                </mxCell>
                <mxCell id="76" value="" style="html=1;points=[];perimeter=orthogonalPerimeter;labelBorderColor=default;strokeColor=default;fontFamily=Times New Roman;fontSize=16;" parent="1" vertex="1">
                    <mxGeometry x="115" y="2756" width="10" height="310" as="geometry"/>
                </mxCell>
                <mxCell id="78" value="send message" style="html=1;verticalAlign=bottom;startArrow=oval;endArrow=block;startSize=8;rounded=0;fontFamily=Times New Roman;fontSize=16;entryX=-0.389;entryY=0.183;entryDx=0;entryDy=0;entryPerimeter=0;" parent="1" target="100" edge="1">
                    <mxGeometry x="-0.0068" relative="1" as="geometry">
                        <mxPoint x="125" y="2817.6600000000003" as="sourcePoint"/>
                        <mxPoint x="270" y="2818" as="targetPoint"/>
                        <mxPoint as="offset"/>
                    </mxGeometry>
                </mxCell>
                <mxCell id="80" value="recv header" style="html=1;verticalAlign=bottom;startArrow=oval;endArrow=block;startSize=8;rounded=0;fontFamily=Times New Roman;fontSize=16;entryX=-0.2;entryY=0.193;entryDx=0;entryDy=0;entryPerimeter=0;exitX=1.338;exitY=0.307;exitDx=0;exitDy=0;exitPerimeter=0;" parent="1" edge="1" source="100">
                    <mxGeometry x="-0.0092" y="-1" relative="1" as="geometry">
                        <mxPoint x="280" y="2856" as="sourcePoint"/>
                        <mxPoint x="393" y="2856.18" as="targetPoint"/>
                        <mxPoint as="offset"/>
                    </mxGeometry>
                </mxCell>
                <mxCell id="83" value="set size of packet" style="edgeStyle=orthogonalEdgeStyle;html=1;align=left;spacingLeft=2;endArrow=block;rounded=0;entryX=1;entryY=0;fontFamily=Times New Roman;fontSize=16;" parent="1" edge="1">
                    <mxGeometry relative="1" as="geometry">
                        <mxPoint x="405" y="2873" as="sourcePoint"/>
                        <Array as="points">
                            <mxPoint x="435" y="2873"/>
                        </Array>
                        <mxPoint x="410" y="2893" as="targetPoint"/>
                    </mxGeometry>
                </mxCell>
                <mxCell id="85" value="recv packet" style="html=1;verticalAlign=bottom;startArrow=oval;endArrow=block;startSize=8;rounded=0;fontFamily=Times New Roman;fontSize=16;exitX=1.287;exitY=0.563;exitDx=0;exitDy=0;exitPerimeter=0;entryX=-0.213;entryY=0.564;entryDx=0;entryDy=0;entryPerimeter=0;" parent="1" source="101" target="102" edge="1">
                    <mxGeometry relative="1" as="geometry">
                        <mxPoint x="405" y="2936" as="sourcePoint"/>
                        <mxPoint x="550" y="2936" as="targetPoint"/>
                    </mxGeometry>
                </mxCell>
                <mxCell id="86" value="RelaySever" style="html=1;labelBorderColor=default;strokeColor=default;fontFamily=Times New Roman;fontSize=16;" parent="1" vertex="1">
                    <mxGeometry x="230" y="2736" width="80" height="20" as="geometry"/>
                </mxCell>
                <mxCell id="88" value="RelaySever" style="html=1;labelBorderColor=default;strokeColor=default;fontFamily=Times New Roman;fontSize=16;" parent="1" vertex="1">
                    <mxGeometry x="360" y="2736" width="80" height="20" as="geometry"/>
                </mxCell>
                <mxCell id="89" value="RelaySever" style="html=1;labelBorderColor=default;strokeColor=default;fontFamily=Times New Roman;fontSize=16;" parent="1" vertex="1">
                    <mxGeometry x="530" y="2736" width="80" height="20" as="geometry"/>
                </mxCell>
                <mxCell id="98" value="send buffer" style="html=1;verticalAlign=bottom;startArrow=oval;endArrow=block;startSize=8;rounded=0;fontFamily=Times New Roman;fontSize=16;entryX=0.15;entryY=0.79;entryDx=0;entryDy=0;entryPerimeter=0;" parent="1" target="105" edge="1">
                    <mxGeometry relative="1" as="geometry">
                        <mxPoint x="570" y="3006.5" as="sourcePoint"/>
                        <mxPoint x="717.5200000000002" y="3006.83" as="targetPoint"/>
                    </mxGeometry>
                </mxCell>
                <mxCell id="100" value="" style="html=1;points=[];perimeter=orthogonalPerimeter;labelBorderColor=default;strokeColor=default;fontFamily=Times New Roman;fontSize=16;" parent="1" vertex="1">
                    <mxGeometry x="260" y="2761" width="10" height="310" as="geometry"/>
                </mxCell>
                <mxCell id="101" value="" style="html=1;points=[];perimeter=orthogonalPerimeter;labelBorderColor=default;strokeColor=default;fontFamily=Times New Roman;fontSize=16;" parent="1" vertex="1">
                    <mxGeometry x="395" y="2761" width="10" height="310" as="geometry"/>
                </mxCell>
                <mxCell id="102" value="" style="html=1;points=[];perimeter=orthogonalPerimeter;labelBorderColor=default;strokeColor=default;fontFamily=Times New Roman;fontSize=16;" parent="1" vertex="1">
                    <mxGeometry x="560" y="2761" width="10" height="310" as="geometry"/>
                </mxCell>
                <mxCell id="108" value="" style="edgeStyle=none;rounded=0;html=1;fontFamily=Times New Roman;fontSize=16;" parent="1" source="104" target="105" edge="1">
                    <mxGeometry relative="1" as="geometry"/>
                </mxCell>
                <mxCell id="104" value="Client 1" style="shape=umlActor;verticalLabelPosition=bottom;verticalAlign=top;html=1;labelBorderColor=default;strokeColor=default;fontFamily=Times New Roman;fontSize=16;" parent="1" vertex="1">
                    <mxGeometry x="710" y="2681" width="20" height="50" as="geometry"/>
                </mxCell>
                <mxCell id="105" value="" style="html=1;points=[];perimeter=orthogonalPerimeter;labelBorderColor=default;strokeColor=default;fontFamily=Times New Roman;fontSize=16;" parent="1" vertex="1">
                    <mxGeometry x="715" y="2761" width="10" height="310" as="geometry"/>
                </mxCell>
                <mxCell id="107" value="buffer message" style="edgeStyle=orthogonalEdgeStyle;html=1;align=left;spacingLeft=2;endArrow=block;rounded=0;entryX=1;entryY=0;fontFamily=Times New Roman;fontSize=16;" parent="1" edge="1">
                    <mxGeometry relative="1" as="geometry">
                        <mxPoint x="570" y="2956" as="sourcePoint"/>
                        <Array as="points">
                            <mxPoint x="600" y="2956"/>
                        </Array>
                        <mxPoint x="575" y="2976" as="targetPoint"/>
                    </mxGeometry>
                </mxCell>
                <mxCell id="121" value="NetAddress" style="swimlane;fontStyle=1;align=center;verticalAlign=top;childLayout=stackLayout;horizontal=1;startSize=26;horizontalStack=0;resizeParent=1;resizeParentMax=0;resizeLast=0;collapsible=1;marginBottom=0;labelBorderColor=default;strokeColor=default;fontFamily=Times New Roman;fontSize=16;" vertex="1" parent="1">
                    <mxGeometry x="-390" y="360" width="300" height="216" as="geometry"/>
                </mxCell>
                <mxCell id="122" value="- addr_: struct sockaddr_in" style="text;strokeColor=none;fillColor=none;align=left;verticalAlign=top;spacingLeft=4;spacingRight=4;overflow=hidden;rotatable=0;points=[[0,0.5],[1,0.5]];portConstraint=eastwest;labelBorderColor=default;fontFamily=Times New Roman;fontSize=16;" vertex="1" parent="121">
                    <mxGeometry y="26" width="300" height="26" as="geometry"/>
                </mxCell>
                <mxCell id="123" value="- addr_len_: socklen_t" style="text;strokeColor=none;fillColor=none;align=left;verticalAlign=top;spacingLeft=4;spacingRight=4;overflow=hidden;rotatable=0;points=[[0,0.5],[1,0.5]];portConstraint=eastwest;labelBorderColor=default;fontFamily=Times New Roman;fontSize=16;" vertex="1" parent="121">
                    <mxGeometry y="52" width="300" height="26" as="geometry"/>
                </mxCell>
                <mxCell id="131" value="" style="line;strokeWidth=1;fillColor=none;align=left;verticalAlign=middle;spacingTop=-1;spacingLeft=3;spacingRight=3;rotatable=0;labelPosition=right;points=[];portConstraint=eastwest;strokeColor=inherit;labelBorderColor=default;fontFamily=Times New Roman;fontSize=16;" vertex="1" parent="121">
                    <mxGeometry y="78" width="300" height="8" as="geometry"/>
                </mxCell>
                <mxCell id="132" value="+ GetIp(): const char*" style="text;strokeColor=none;fillColor=none;align=left;verticalAlign=top;spacingLeft=4;spacingRight=4;overflow=hidden;rotatable=0;points=[[0,0.5],[1,0.5]];portConstraint=eastwest;labelBorderColor=default;fontFamily=Times New Roman;fontSize=16;" vertex="1" parent="121">
                    <mxGeometry y="86" width="300" height="26" as="geometry"/>
                </mxCell>
                <mxCell id="133" value="+ GetPort(): uint16_t" style="text;strokeColor=none;fillColor=none;align=left;verticalAlign=top;spacingLeft=4;spacingRight=4;overflow=hidden;rotatable=0;points=[[0,0.5],[1,0.5]];portConstraint=eastwest;labelBorderColor=default;fontFamily=Times New Roman;fontSize=16;" vertex="1" parent="121">
                    <mxGeometry y="112" width="300" height="26" as="geometry"/>
                </mxCell>
                <mxCell id="134" value="+ GetAddr(): struct sockaddr*" style="text;strokeColor=none;fillColor=none;align=left;verticalAlign=top;spacingLeft=4;spacingRight=4;overflow=hidden;rotatable=0;points=[[0,0.5],[1,0.5]];portConstraint=eastwest;labelBorderColor=default;fontFamily=Times New Roman;fontSize=16;" vertex="1" parent="121">
                    <mxGeometry y="138" width="300" height="26" as="geometry"/>
                </mxCell>
                <mxCell id="135" value="+ GetAddrLen(): socklen_t*" style="text;strokeColor=none;fillColor=none;align=left;verticalAlign=top;spacingLeft=4;spacingRight=4;overflow=hidden;rotatable=0;points=[[0,0.5],[1,0.5]];portConstraint=eastwest;labelBorderColor=default;fontFamily=Times New Roman;fontSize=16;" vertex="1" parent="121">
                    <mxGeometry y="164" width="300" height="26" as="geometry"/>
                </mxCell>
                <mxCell id="136" value="+ SetAddr(const struct sockaddr_in&amp;): void" style="text;strokeColor=none;fillColor=none;align=left;verticalAlign=top;spacingLeft=4;spacingRight=4;overflow=hidden;rotatable=0;points=[[0,0.5],[1,0.5]];portConstraint=eastwest;labelBorderColor=default;fontFamily=Times New Roman;fontSize=16;" vertex="1" parent="121">
                    <mxGeometry y="190" width="300" height="26" as="geometry"/>
                </mxCell>
                <mxCell id="143" value="NSocket" style="swimlane;fontStyle=1;align=center;verticalAlign=top;childLayout=stackLayout;horizontal=1;startSize=26;horizontalStack=0;resizeParent=1;resizeParentMax=0;resizeLast=0;collapsible=1;marginBottom=0;labelBorderColor=default;strokeColor=default;fontFamily=Times New Roman;fontSize=16;" vertex="1" parent="1">
                    <mxGeometry x="-355" y="640" width="230" height="242" as="geometry"/>
                </mxCell>
                <mxCell id="144" value="- fd_: int" style="text;strokeColor=none;fillColor=none;align=left;verticalAlign=top;spacingLeft=4;spacingRight=4;overflow=hidden;rotatable=0;points=[[0,0.5],[1,0.5]];portConstraint=eastwest;labelBorderColor=default;fontFamily=Times New Roman;fontSize=16;" vertex="1" parent="143">
                    <mxGeometry y="26" width="230" height="26" as="geometry"/>
                </mxCell>
                <mxCell id="146" value="" style="line;strokeWidth=1;fillColor=none;align=left;verticalAlign=middle;spacingTop=-1;spacingLeft=3;spacingRight=3;rotatable=0;labelPosition=right;points=[];portConstraint=eastwest;strokeColor=inherit;labelBorderColor=default;fontFamily=Times New Roman;fontSize=16;" vertex="1" parent="143">
                    <mxGeometry y="52" width="230" height="8" as="geometry"/>
                </mxCell>
                <mxCell id="147" value="+ GetFd(): int" style="text;strokeColor=none;fillColor=none;align=left;verticalAlign=top;spacingLeft=4;spacingRight=4;overflow=hidden;rotatable=0;points=[[0,0.5],[1,0.5]];portConstraint=eastwest;labelBorderColor=default;fontFamily=Times New Roman;fontSize=16;" vertex="1" parent="143">
                    <mxGeometry y="60" width="230" height="26" as="geometry"/>
                </mxCell>
                <mxCell id="148" value="+ Connect(NetAddress &amp;): void" style="text;strokeColor=none;fillColor=none;align=left;verticalAlign=top;spacingLeft=4;spacingRight=4;overflow=hidden;rotatable=0;points=[[0,0.5],[1,0.5]];portConstraint=eastwest;labelBorderColor=default;fontFamily=Times New Roman;fontSize=16;" vertex="1" parent="143">
                    <mxGeometry y="86" width="230" height="26" as="geometry"/>
                </mxCell>
                <mxCell id="149" value="+ Bind(NetAddress &amp;, bool): void" style="text;strokeColor=none;fillColor=none;align=left;verticalAlign=top;spacingLeft=4;spacingRight=4;overflow=hidden;rotatable=0;points=[[0,0.5],[1,0.5]];portConstraint=eastwest;labelBorderColor=default;fontFamily=Times New Roman;fontSize=16;" vertex="1" parent="143">
                    <mxGeometry y="112" width="230" height="26" as="geometry"/>
                </mxCell>
                <mxCell id="150" value="+ Listen(): void" style="text;strokeColor=none;fillColor=none;align=left;verticalAlign=top;spacingLeft=4;spacingRight=4;overflow=hidden;rotatable=0;points=[[0,0.5],[1,0.5]];portConstraint=eastwest;labelBorderColor=default;fontFamily=Times New Roman;fontSize=16;" vertex="1" parent="143">
                    <mxGeometry y="138" width="230" height="26" as="geometry"/>
                </mxCell>
                <mxCell id="151" value="+ Accept(NetAddress &amp;): int" style="text;strokeColor=none;fillColor=none;align=left;verticalAlign=top;spacingLeft=4;spacingRight=4;overflow=hidden;rotatable=0;points=[[0,0.5],[1,0.5]];portConstraint=eastwest;labelBorderColor=default;fontFamily=Times New Roman;fontSize=16;" vertex="1" parent="143">
                    <mxGeometry y="164" width="230" height="26" as="geometry"/>
                </mxCell>
                <mxCell id="153" value="- SetReusable(): void" style="text;strokeColor=none;fillColor=none;align=left;verticalAlign=top;spacingLeft=4;spacingRight=4;overflow=hidden;rotatable=0;points=[[0,0.5],[1,0.5]];portConstraint=eastwest;labelBorderColor=default;fontFamily=Times New Roman;fontSize=16;" vertex="1" parent="143">
                    <mxGeometry y="190" width="230" height="26" as="geometry"/>
                </mxCell>
                <mxCell id="152" value="- SetNonBlocking(): void" style="text;strokeColor=none;fillColor=none;align=left;verticalAlign=top;spacingLeft=4;spacingRight=4;overflow=hidden;rotatable=0;points=[[0,0.5],[1,0.5]];portConstraint=eastwest;labelBorderColor=default;fontFamily=Times New Roman;fontSize=16;" vertex="1" parent="143">
                    <mxGeometry y="216" width="230" height="26" as="geometry"/>
                </mxCell>
                <mxCell id="154" value="Connection" style="swimlane;fontStyle=1;align=center;verticalAlign=top;childLayout=stackLayout;horizontal=1;startSize=26;horizontalStack=0;resizeParent=1;resizeParentMax=0;resizeLast=0;collapsible=1;marginBottom=0;labelBorderColor=default;strokeColor=default;fontFamily=Times New Roman;fontSize=16;" vertex="1" parent="1">
                    <mxGeometry x="520" y="470" width="420" height="944" as="geometry"/>
                </mxCell>
                <mxCell id="155" value="- m_conn_: NSocket*" style="text;strokeColor=none;fillColor=none;align=left;verticalAlign=top;spacingLeft=4;spacingRight=4;overflow=hidden;rotatable=0;points=[[0,0.5],[1,0.5]];portConstraint=eastwest;labelBorderColor=default;fontFamily=Times New Roman;fontSize=16;" vertex="1" parent="154">
                    <mxGeometry y="26" width="420" height="26" as="geometry"/>
                </mxCell>
                <mxCell id="156" value="- m_cliId_: int" style="text;strokeColor=none;fillColor=none;align=left;verticalAlign=top;spacingLeft=4;spacingRight=4;overflow=hidden;rotatable=0;points=[[0,0.5],[1,0.5]];portConstraint=eastwest;labelBorderColor=default;fontFamily=Times New Roman;fontSize=16;" vertex="1" parent="154">
                    <mxGeometry y="52" width="420" height="26" as="geometry"/>
                </mxCell>
                <mxCell id="157" value="- m_dstId_: int" style="text;strokeColor=none;fillColor=none;align=left;verticalAlign=top;spacingLeft=4;spacingRight=4;overflow=hidden;rotatable=0;points=[[0,0.5],[1,0.5]];portConstraint=eastwest;labelBorderColor=default;fontFamily=Times New Roman;fontSize=16;" vertex="1" parent="154">
                    <mxGeometry y="78" width="420" height="26" as="geometry"/>
                </mxCell>
                <mxCell id="158" value="- m_state_: int" style="text;strokeColor=none;fillColor=none;align=left;verticalAlign=top;spacingLeft=4;spacingRight=4;overflow=hidden;rotatable=0;points=[[0,0.5],[1,0.5]];portConstraint=eastwest;labelBorderColor=default;fontFamily=Times New Roman;fontSize=16;" vertex="1" parent="154">
                    <mxGeometry y="104" width="420" height="26" as="geometry"/>
                </mxCell>
                <mxCell id="159" value="- m_packetlen_: int" style="text;strokeColor=none;fillColor=none;align=left;verticalAlign=top;spacingLeft=4;spacingRight=4;overflow=hidden;rotatable=0;points=[[0,0.5],[1,0.5]];portConstraint=eastwest;labelBorderColor=default;fontFamily=Times New Roman;fontSize=16;" vertex="1" parent="154">
                    <mxGeometry y="130" width="420" height="26" as="geometry"/>
                </mxCell>
                <mxCell id="160" value="- m_headbuf_: int" style="text;strokeColor=none;fillColor=none;align=left;verticalAlign=top;spacingLeft=4;spacingRight=4;overflow=hidden;rotatable=0;points=[[0,0.5],[1,0.5]];portConstraint=eastwest;labelBorderColor=default;fontFamily=Times New Roman;fontSize=16;" vertex="1" parent="154">
                    <mxGeometry y="156" width="420" height="26" as="geometry"/>
                </mxCell>
                <mxCell id="161" value="- m_irecvlen_: int" style="text;strokeColor=none;fillColor=none;align=left;verticalAlign=top;spacingLeft=4;spacingRight=4;overflow=hidden;rotatable=0;points=[[0,0.5],[1,0.5]];portConstraint=eastwest;labelBorderColor=default;fontFamily=Times New Roman;fontSize=16;" vertex="1" parent="154">
                    <mxGeometry y="182" width="420" height="26" as="geometry"/>
                </mxCell>
                <mxCell id="162" value="- m_iunrecvlen_: int" style="text;strokeColor=none;fillColor=none;align=left;verticalAlign=top;spacingLeft=4;spacingRight=4;overflow=hidden;rotatable=0;points=[[0,0.5],[1,0.5]];portConstraint=eastwest;labelBorderColor=default;fontFamily=Times New Roman;fontSize=16;" vertex="1" parent="154">
                    <mxGeometry y="208" width="420" height="26" as="geometry"/>
                </mxCell>
                <mxCell id="163" value="- m_precvbuf_: char[BUFFERSZ]" style="text;strokeColor=none;fillColor=none;align=left;verticalAlign=top;spacingLeft=4;spacingRight=4;overflow=hidden;rotatable=0;points=[[0,0.5],[1,0.5]];portConstraint=eastwest;labelBorderColor=default;fontFamily=Times New Roman;fontSize=16;" vertex="1" parent="154">
                    <mxGeometry y="234" width="420" height="26" as="geometry"/>
                </mxCell>
                <mxCell id="177" value="- m_shurwr_: bool" style="text;strokeColor=none;fillColor=none;align=left;verticalAlign=top;spacingLeft=4;spacingRight=4;overflow=hidden;rotatable=0;points=[[0,0.5],[1,0.5]];portConstraint=eastwest;labelBorderColor=default;fontFamily=Times New Roman;fontSize=16;" vertex="1" parent="154">
                    <mxGeometry y="260" width="420" height="26" as="geometry"/>
                </mxCell>
                <mxCell id="178" value="- m_read_cb_: std::function&lt;void()&gt;" style="text;strokeColor=none;fillColor=none;align=left;verticalAlign=top;spacingLeft=4;spacingRight=4;overflow=hidden;rotatable=0;points=[[0,0.5],[1,0.5]];portConstraint=eastwest;labelBorderColor=default;fontFamily=Times New Roman;fontSize=16;" vertex="1" parent="154">
                    <mxGeometry y="286" width="420" height="26" as="geometry"/>
                </mxCell>
                <mxCell id="176" value="- m_write_cb_: std::function&lt;void()&gt;" style="text;strokeColor=none;fillColor=none;align=left;verticalAlign=top;spacingLeft=4;spacingRight=4;overflow=hidden;rotatable=0;points=[[0,0.5],[1,0.5]];portConstraint=eastwest;labelBorderColor=default;fontFamily=Times New Roman;fontSize=16;" vertex="1" parent="154">
                    <mxGeometry y="312" width="420" height="26" as="geometry"/>
                </mxCell>
                <mxCell id="164" value="" style="line;strokeWidth=1;fillColor=none;align=left;verticalAlign=middle;spacingTop=-1;spacingLeft=3;spacingRight=3;rotatable=0;labelPosition=right;points=[];portConstraint=eastwest;strokeColor=inherit;labelBorderColor=default;fontFamily=Times New Roman;fontSize=16;" vertex="1" parent="154">
                    <mxGeometry y="338" width="420" height="8" as="geometry"/>
                </mxCell>
                <mxCell id="165" value="+ GetFd(): int" style="text;strokeColor=none;fillColor=none;align=left;verticalAlign=top;spacingLeft=4;spacingRight=4;overflow=hidden;rotatable=0;points=[[0,0.5],[1,0.5]];portConstraint=eastwest;labelBorderColor=default;fontFamily=Times New Roman;fontSize=16;" vertex="1" parent="154">
                    <mxGeometry y="346" width="420" height="26" as="geometry"/>
                </mxCell>
                <mxCell id="166" value="+ GetSocket(): NSocket*" style="text;strokeColor=none;fillColor=none;align=left;verticalAlign=top;spacingLeft=4;spacingRight=4;overflow=hidden;rotatable=0;points=[[0,0.5],[1,0.5]];portConstraint=eastwest;labelBorderColor=default;fontFamily=Times New Roman;fontSize=16;" vertex="1" parent="154">
                    <mxGeometry y="372" width="420" height="26" as="geometry"/>
                </mxCell>
                <mxCell id="167" value="+ GetCliId(): int" style="text;strokeColor=none;fillColor=none;align=left;verticalAlign=top;spacingLeft=4;spacingRight=4;overflow=hidden;rotatable=0;points=[[0,0.5],[1,0.5]];portConstraint=eastwest;labelBorderColor=default;fontFamily=Times New Roman;fontSize=16;" vertex="1" parent="154">
                    <mxGeometry y="398" width="420" height="26" as="geometry"/>
                </mxCell>
                <mxCell id="168" value="+ SetCliId(int): void" style="text;strokeColor=none;fillColor=none;align=left;verticalAlign=top;spacingLeft=4;spacingRight=4;overflow=hidden;rotatable=0;points=[[0,0.5],[1,0.5]];portConstraint=eastwest;labelBorderColor=default;fontFamily=Times New Roman;fontSize=16;" vertex="1" parent="154">
                    <mxGeometry y="424" width="420" height="26" as="geometry"/>
                </mxCell>
                <mxCell id="169" value="+ GetdstId(): int" style="text;strokeColor=none;fillColor=none;align=left;verticalAlign=top;spacingLeft=4;spacingRight=4;overflow=hidden;rotatable=0;points=[[0,0.5],[1,0.5]];portConstraint=eastwest;labelBorderColor=default;fontFamily=Times New Roman;fontSize=16;" vertex="1" parent="154">
                    <mxGeometry y="450" width="420" height="26" as="geometry"/>
                </mxCell>
                <mxCell id="170" value="+ SetdstId(int): void" style="text;strokeColor=none;fillColor=none;align=left;verticalAlign=top;spacingLeft=4;spacingRight=4;overflow=hidden;rotatable=0;points=[[0,0.5],[1,0.5]];portConstraint=eastwest;labelBorderColor=default;fontFamily=Times New Roman;fontSize=16;" vertex="1" parent="154">
                    <mxGeometry y="476" width="420" height="26" as="geometry"/>
                </mxCell>
                <mxCell id="171" value="+ GetState(): int" style="text;strokeColor=none;fillColor=none;align=left;verticalAlign=top;spacingLeft=4;spacingRight=4;overflow=hidden;rotatable=0;points=[[0,0.5],[1,0.5]];portConstraint=eastwest;labelBorderColor=default;fontFamily=Times New Roman;fontSize=16;" vertex="1" parent="154">
                    <mxGeometry y="502" width="420" height="26" as="geometry"/>
                </mxCell>
                <mxCell id="172" value="+ SetState(int): void" style="text;strokeColor=none;fillColor=none;align=left;verticalAlign=top;spacingLeft=4;spacingRight=4;overflow=hidden;rotatable=0;points=[[0,0.5],[1,0.5]];portConstraint=eastwest;labelBorderColor=default;fontFamily=Times New Roman;fontSize=16;" vertex="1" parent="154">
                    <mxGeometry y="528" width="420" height="26" as="geometry"/>
                </mxCell>
                <mxCell id="173" value="+ GetShutWR(): bool" style="text;strokeColor=none;fillColor=none;align=left;verticalAlign=top;spacingLeft=4;spacingRight=4;overflow=hidden;rotatable=0;points=[[0,0.5],[1,0.5]];portConstraint=eastwest;labelBorderColor=default;fontFamily=Times New Roman;fontSize=16;" vertex="1" parent="154">
                    <mxGeometry y="554" width="420" height="26" as="geometry"/>
                </mxCell>
                <mxCell id="174" value="+ SetShutWR(bool): void" style="text;strokeColor=none;fillColor=none;align=left;verticalAlign=top;spacingLeft=4;spacingRight=4;overflow=hidden;rotatable=0;points=[[0,0.5],[1,0.5]];portConstraint=eastwest;labelBorderColor=default;fontFamily=Times New Roman;fontSize=16;" vertex="1" parent="154">
                    <mxGeometry y="580" width="420" height="26" as="geometry"/>
                </mxCell>
                <mxCell id="175" value="+ GetHeadBuf():  char*" style="text;strokeColor=none;fillColor=none;align=left;verticalAlign=top;spacingLeft=4;spacingRight=4;overflow=hidden;rotatable=0;points=[[0,0.5],[1,0.5]];portConstraint=eastwest;labelBorderColor=default;fontFamily=Times New Roman;fontSize=16;" vertex="1" parent="154">
                    <mxGeometry y="606" width="420" height="26" as="geometry"/>
                </mxCell>
                <mxCell id="205" value="+ GetRecvBuf():  char*" style="text;strokeColor=none;fillColor=none;align=left;verticalAlign=top;spacingLeft=4;spacingRight=4;overflow=hidden;rotatable=0;points=[[0,0.5],[1,0.5]];portConstraint=eastwest;labelBorderColor=default;fontFamily=Times New Roman;fontSize=16;" vertex="1" parent="154">
                    <mxGeometry y="632" width="420" height="26" as="geometry"/>
                </mxCell>
                <mxCell id="209" value="+ GetPacketLen(): int" style="text;strokeColor=none;fillColor=none;align=left;verticalAlign=top;spacingLeft=4;spacingRight=4;overflow=hidden;rotatable=0;points=[[0,0.5],[1,0.5]];portConstraint=eastwest;labelBorderColor=default;fontFamily=Times New Roman;fontSize=16;" vertex="1" parent="154">
                    <mxGeometry y="658" width="420" height="26" as="geometry"/>
                </mxCell>
                <mxCell id="210" value="+ SetPacketLen(int): void" style="text;strokeColor=none;fillColor=none;align=left;verticalAlign=top;spacingLeft=4;spacingRight=4;overflow=hidden;rotatable=0;points=[[0,0.5],[1,0.5]];portConstraint=eastwest;labelBorderColor=default;fontFamily=Times New Roman;fontSize=16;" vertex="1" parent="154">
                    <mxGeometry y="684" width="420" height="26" as="geometry"/>
                </mxCell>
                <mxCell id="212" value="+ GetRecvLen(): int" style="text;strokeColor=none;fillColor=none;align=left;verticalAlign=top;spacingLeft=4;spacingRight=4;overflow=hidden;rotatable=0;points=[[0,0.5],[1,0.5]];portConstraint=eastwest;labelBorderColor=default;fontFamily=Times New Roman;fontSize=16;" vertex="1" parent="154">
                    <mxGeometry y="710" width="420" height="26" as="geometry"/>
                </mxCell>
                <mxCell id="213" value="+ AddRecvLen(int): void" style="text;strokeColor=none;fillColor=none;align=left;verticalAlign=top;spacingLeft=4;spacingRight=4;overflow=hidden;rotatable=0;points=[[0,0.5],[1,0.5]];portConstraint=eastwest;labelBorderColor=default;fontFamily=Times New Roman;fontSize=16;" vertex="1" parent="154">
                    <mxGeometry y="736" width="420" height="26" as="geometry"/>
                </mxCell>
                <mxCell id="211" value="+ SubRecvLen(int): void" style="text;strokeColor=none;fillColor=none;align=left;verticalAlign=top;spacingLeft=4;spacingRight=4;overflow=hidden;rotatable=0;points=[[0,0.5],[1,0.5]];portConstraint=eastwest;labelBorderColor=default;fontFamily=Times New Roman;fontSize=16;" vertex="1" parent="154">
                    <mxGeometry y="762" width="420" height="26" as="geometry"/>
                </mxCell>
                <mxCell id="208" value="+ GetUnRecvLen(): int" style="text;strokeColor=none;fillColor=none;align=left;verticalAlign=top;spacingLeft=4;spacingRight=4;overflow=hidden;rotatable=0;points=[[0,0.5],[1,0.5]];portConstraint=eastwest;labelBorderColor=default;fontFamily=Times New Roman;fontSize=16;" vertex="1" parent="154">
                    <mxGeometry y="788" width="420" height="26" as="geometry"/>
                </mxCell>
                <mxCell id="207" value="+ SetUnRecvLen(int): void" style="text;strokeColor=none;fillColor=none;align=left;verticalAlign=top;spacingLeft=4;spacingRight=4;overflow=hidden;rotatable=0;points=[[0,0.5],[1,0.5]];portConstraint=eastwest;labelBorderColor=default;fontFamily=Times New Roman;fontSize=16;" vertex="1" parent="154">
                    <mxGeometry y="814" width="420" height="26" as="geometry"/>
                </mxCell>
                <mxCell id="206" value="+ SetReadcb(const std::function&lt;void(Connection*)&gt;&amp;): void" style="text;strokeColor=none;fillColor=none;align=left;verticalAlign=top;spacingLeft=4;spacingRight=4;overflow=hidden;rotatable=0;points=[[0,0.5],[1,0.5]];portConstraint=eastwest;labelBorderColor=default;fontFamily=Times New Roman;fontSize=16;" vertex="1" parent="154">
                    <mxGeometry y="840" width="420" height="26" as="geometry"/>
                </mxCell>
                <mxCell id="214" value="+ SetWritecb(const std::function&lt;void(Connection*)&gt;&amp;): void" style="text;strokeColor=none;fillColor=none;align=left;verticalAlign=top;spacingLeft=4;spacingRight=4;overflow=hidden;rotatable=0;points=[[0,0.5],[1,0.5]];portConstraint=eastwest;labelBorderColor=default;fontFamily=Times New Roman;fontSize=16;" vertex="1" parent="154">
                    <mxGeometry y="866" width="420" height="26" as="geometry"/>
                </mxCell>
                <mxCell id="215" value="+ GetReadcb(): std::function&lt;void()&gt;" style="text;strokeColor=none;fillColor=none;align=left;verticalAlign=top;spacingLeft=4;spacingRight=4;overflow=hidden;rotatable=0;points=[[0,0.5],[1,0.5]];portConstraint=eastwest;labelBorderColor=default;fontFamily=Times New Roman;fontSize=16;" vertex="1" parent="154">
                    <mxGeometry y="892" width="420" height="26" as="geometry"/>
                </mxCell>
                <mxCell id="204" value="+ GetWritecb(): std::function&lt;void()&gt;" style="text;strokeColor=none;fillColor=none;align=left;verticalAlign=top;spacingLeft=4;spacingRight=4;overflow=hidden;rotatable=0;points=[[0,0.5],[1,0.5]];portConstraint=eastwest;labelBorderColor=default;fontFamily=Times New Roman;fontSize=16;" vertex="1" parent="154">
                    <mxGeometry y="918" width="420" height="26" as="geometry"/>
                </mxCell>
                <mxCell id="217" value="1" style="endArrow=open;html=1;endSize=12;startArrow=diamondThin;startSize=14;startFill=0;edgeStyle=orthogonalEdgeStyle;align=left;verticalAlign=bottom;fontFamily=Times New Roman;fontSize=16;entryX=1;entryY=0.5;entryDx=0;entryDy=0;" edge="1" parent="1" target="122">
                    <mxGeometry x="-1" y="-5" relative="1" as="geometry">
                        <mxPoint x="60" y="400" as="sourcePoint"/>
                        <mxPoint x="70" y="515.58" as="targetPoint"/>
                        <mxPoint as="offset"/>
                    </mxGeometry>
                </mxCell>
                <mxCell id="218" value="1" style="endArrow=open;html=1;endSize=12;startArrow=diamondThin;startSize=14;startFill=0;edgeStyle=orthogonalEdgeStyle;align=left;verticalAlign=bottom;fontFamily=Times New Roman;fontSize=16;entryX=1;entryY=0.5;entryDx=0;entryDy=0;exitX=-0.008;exitY=0.714;exitDx=0;exitDy=0;exitPerimeter=0;" edge="1" parent="1" source="36" target="144">
                    <mxGeometry x="-1" y="-5" relative="1" as="geometry">
                        <mxPoint x="70" y="410" as="sourcePoint"/>
                        <mxPoint x="-80" y="409" as="targetPoint"/>
                        <mxPoint as="offset"/>
                    </mxGeometry>
                </mxCell>
                <mxCell id="219" value="2" style="endArrow=open;html=1;endSize=12;startArrow=diamondThin;startSize=14;startFill=0;edgeStyle=orthogonalEdgeStyle;align=left;verticalAlign=bottom;fontFamily=Times New Roman;fontSize=16;exitX=1;exitY=0.5;exitDx=0;exitDy=0;entryX=0;entryY=0.5;entryDx=0;entryDy=0;" edge="1" parent="1" source="39" target="155">
                    <mxGeometry x="-1" y="3" relative="1" as="geometry">
                        <mxPoint x="400" y="460.9999999999998" as="sourcePoint"/>
                        <mxPoint x="532.1299999999997" y="336.61799999999994" as="targetPoint"/>
                    </mxGeometry>
                </mxCell>
            </root>
        </mxGraphModel>
    </diagram>
</mxfile>